<mxfile host="Electron" agent="Mozilla/5.0 (Windows NT 10.0; Win64; x64) AppleWebKit/537.36 (KHTML, like Gecko) draw.io/28.0.6 Chrome/138.0.7204.100 Electron/37.2.3 Safari/537.36" version="28.0.6">
  <diagram name="Data Architecture" id="PEH2Xnl91KOo80Af5TBM">
    <mxGraphModel dx="3422" dy="2141" grid="1" gridSize="10" guides="1" tooltips="1" connect="1" arrows="1" fold="1" page="1" pageScale="1" pageWidth="850" pageHeight="1100" math="0" shadow="0">
      <root>
        <mxCell id="0" />
        <mxCell id="1" parent="0" />
        <mxCell id="7xgxsQmzn1exeGcwb4o9-1" value="&lt;font style=&quot;font-size: 30px;&quot;&gt;High Level Architecture&lt;/font&gt;" style="text;html=1;align=center;verticalAlign=middle;whiteSpace=wrap;rounded=0;" vertex="1" parent="1">
          <mxGeometry x="-1443" y="-950" width="330" height="60" as="geometry" />
        </mxCell>
        <mxCell id="gRjfanxGKgktbRo47-63-1" value="" style="rounded=0;whiteSpace=wrap;html=1;fillColor=none;dashed=1;strokeColor=light-dark(#F2F0FF,#4D4D4D);" vertex="1" parent="1">
          <mxGeometry x="-1443" y="-830" width="140" height="570" as="geometry" />
        </mxCell>
        <mxCell id="gRjfanxGKgktbRo47-63-2" value="&lt;font style=&quot;font-size: 24px;&quot;&gt;Sources&lt;/font&gt;" style="rounded=0;whiteSpace=wrap;html=1;strokeColor=none;" vertex="1" parent="1">
          <mxGeometry x="-1423" y="-850" width="100" height="30" as="geometry" />
        </mxCell>
        <mxCell id="gRjfanxGKgktbRo47-63-4" value="" style="rounded=0;whiteSpace=wrap;html=1;fillColor=none;dashed=1;strokeColor=light-dark(#F2F0FF,#4D4D4D);" vertex="1" parent="1">
          <mxGeometry x="-1243" y="-830" width="570" height="570" as="geometry" />
        </mxCell>
        <mxCell id="gRjfanxGKgktbRo47-63-7" value="&lt;span style=&quot;font-size: 24px;&quot;&gt;Data warehouse&lt;/span&gt;" style="rounded=0;whiteSpace=wrap;html=1;strokeColor=none;" vertex="1" parent="1">
          <mxGeometry x="-1060.5" y="-850" width="205" height="30" as="geometry" />
        </mxCell>
        <mxCell id="gRjfanxGKgktbRo47-63-8" value="" style="rounded=0;whiteSpace=wrap;html=1;fillColor=none;dashed=1;strokeColor=light-dark(#F2F0FF,#4D4D4D);" vertex="1" parent="1">
          <mxGeometry x="-610" y="-830.95" width="130" height="570" as="geometry" />
        </mxCell>
        <mxCell id="gRjfanxGKgktbRo47-63-9" value="&lt;font style=&quot;font-size: 24px;&quot;&gt;Consume&lt;/font&gt;" style="rounded=0;whiteSpace=wrap;html=1;strokeColor=none;" vertex="1" parent="1">
          <mxGeometry x="-593" y="-850" width="100" height="30" as="geometry" />
        </mxCell>
        <mxCell id="gRjfanxGKgktbRo47-63-10" value="&lt;font style=&quot;color: rgb(0, 0, 0);&quot;&gt;Bronze Layer&lt;/font&gt;" style="rounded=0;whiteSpace=wrap;html=1;fillColor=#fff2cc;strokeColor=#d6b656;fontSize=20;fontStyle=1" vertex="1" parent="1">
          <mxGeometry x="-1230" y="-800" width="160" height="40" as="geometry" />
        </mxCell>
        <mxCell id="gRjfanxGKgktbRo47-63-13" value="&lt;font style=&quot;color: rgb(0, 0, 0);&quot;&gt;Silver Layer&lt;/font&gt;" style="rounded=0;whiteSpace=wrap;html=1;fillColor=#f5f5f5;strokeColor=#666666;fontSize=20;fontColor=#333333;fontStyle=1" vertex="1" parent="1">
          <mxGeometry x="-1038" y="-800" width="160" height="40" as="geometry" />
        </mxCell>
        <mxCell id="gRjfanxGKgktbRo47-63-14" value="" style="rounded=0;whiteSpace=wrap;html=1;fillColor=none;strokeColor=#666666;fontSize=20;fontColor=#333333;" vertex="1" parent="1">
          <mxGeometry x="-1038" y="-750" width="160" height="480" as="geometry" />
        </mxCell>
        <mxCell id="gRjfanxGKgktbRo47-63-16" value="&lt;font style=&quot;color: rgb(0, 0, 0);&quot;&gt;Gold Layer&lt;/font&gt;" style="rounded=0;whiteSpace=wrap;html=1;fillColor=#e3c800;strokeColor=#B09500;fontSize=20;fontColor=#000000;fontStyle=1" vertex="1" parent="1">
          <mxGeometry x="-845.5" y="-800" width="160" height="40" as="geometry" />
        </mxCell>
        <mxCell id="gRjfanxGKgktbRo47-63-17" value="" style="rounded=0;whiteSpace=wrap;html=1;fillColor=none;strokeColor=#B09500;fontSize=20;fontColor=#000000;" vertex="1" parent="1">
          <mxGeometry x="-845.5" y="-750" width="160" height="480" as="geometry" />
        </mxCell>
        <mxCell id="gRjfanxGKgktbRo47-63-19" value="CRM" style="image;aspect=fixed;html=1;points=[];align=center;fontSize=12;image=img/lib/azure2/general/Folder_Blank.svg;" vertex="1" parent="1">
          <mxGeometry x="-1415.25" y="-700" width="69" height="56.00000000000001" as="geometry" />
        </mxCell>
        <mxCell id="gRjfanxGKgktbRo47-63-20" value="" style="image;aspect=fixed;html=1;points=[];align=center;fontSize=12;image=img/lib/azure2/general/File.svg;" vertex="1" parent="1">
          <mxGeometry x="-1362.3999999999999" y="-680" width="31.65" height="39" as="geometry" />
        </mxCell>
        <mxCell id="gRjfanxGKgktbRo47-63-24" value="ERP" style="image;aspect=fixed;html=1;points=[];align=center;fontSize=12;image=img/lib/azure2/general/Folder_Blank.svg;" vertex="1" parent="1">
          <mxGeometry x="-1415.25" y="-574.95" width="69" height="56.00000000000001" as="geometry" />
        </mxCell>
        <mxCell id="gRjfanxGKgktbRo47-63-25" value="" style="image;aspect=fixed;html=1;points=[];align=center;fontSize=12;image=img/lib/azure2/general/File.svg;" vertex="1" parent="1">
          <mxGeometry x="-1362.3999999999999" y="-554.95" width="31.65" height="39" as="geometry" />
        </mxCell>
        <mxCell id="gRjfanxGKgktbRo47-63-28" value="" style="endArrow=none;html=1;rounded=0;fillColor=#647687;strokeColor=#B3B3B3;" edge="1" parent="1">
          <mxGeometry width="50" height="50" relative="1" as="geometry">
            <mxPoint x="-1418" y="-450" as="sourcePoint" />
            <mxPoint x="-1328" y="-450" as="targetPoint" />
          </mxGeometry>
        </mxCell>
        <mxCell id="gRjfanxGKgktbRo47-63-29" value="&lt;font style=&quot;font-size: 12px;&quot;&gt;&lt;b style=&quot;&quot;&gt;Object Type&lt;/b&gt;: CSV Files&lt;/font&gt;&lt;div&gt;&lt;font style=&quot;font-size: 12px;&quot;&gt;&lt;br&gt;&lt;/font&gt;&lt;div&gt;&lt;font style=&quot;font-size: 12px;&quot;&gt;&lt;b style=&quot;line-height: 150%;&quot;&gt;Interface&lt;/b&gt;: Files in Folder&lt;/font&gt;&lt;/div&gt;&lt;/div&gt;" style="text;html=1;align=center;verticalAlign=middle;whiteSpace=wrap;rounded=0;fontSize=10;" vertex="1" parent="1">
          <mxGeometry x="-1429.94" y="-410" width="113.88" height="80" as="geometry" />
        </mxCell>
        <mxCell id="gRjfanxGKgktbRo47-63-30" value="" style="html=1;verticalLabelPosition=bottom;align=center;labelBackgroundColor=#ffffff;verticalAlign=top;strokeWidth=2;strokeColor=#d6b656;shadow=0;dashed=0;shape=mxgraph.ios7.icons.data;fillColor=#fff2cc;" vertex="1" parent="1">
          <mxGeometry x="-1178.62" y="-706.55" width="57.25" height="69.1" as="geometry" />
        </mxCell>
        <mxCell id="gRjfanxGKgktbRo47-63-39" value="Raw Data" style="text;html=1;align=center;verticalAlign=middle;whiteSpace=wrap;rounded=0;" vertex="1" parent="1">
          <mxGeometry x="-1179.9899999999998" y="-630" width="60" height="30" as="geometry" />
        </mxCell>
        <mxCell id="gRjfanxGKgktbRo47-63-40" value="Cleaned, Standardized Data" style="text;html=1;align=center;verticalAlign=middle;whiteSpace=wrap;rounded=0;" vertex="1" parent="1">
          <mxGeometry x="-1020.5" y="-630" width="125" height="30" as="geometry" />
        </mxCell>
        <mxCell id="gRjfanxGKgktbRo47-63-41" value="Business-Ready Data" style="text;html=1;align=center;verticalAlign=middle;whiteSpace=wrap;rounded=0;" vertex="1" parent="1">
          <mxGeometry x="-831.76" y="-630" width="132.5" height="30" as="geometry" />
        </mxCell>
        <mxCell id="gRjfanxGKgktbRo47-63-42" value="" style="endArrow=none;html=1;rounded=0;fillColor=#fff2cc;strokeColor=#d6b656;" edge="1" parent="1">
          <mxGeometry width="50" height="50" relative="1" as="geometry">
            <mxPoint x="-1197.27" y="-560" as="sourcePoint" />
            <mxPoint x="-1107.27" y="-560" as="targetPoint" />
          </mxGeometry>
        </mxCell>
        <mxCell id="gRjfanxGKgktbRo47-63-43" value="" style="endArrow=none;html=1;rounded=0;fillColor=#f5f5f5;strokeColor=#666666;" edge="1" parent="1">
          <mxGeometry width="50" height="50" relative="1" as="geometry">
            <mxPoint x="-1003" y="-560" as="sourcePoint" />
            <mxPoint x="-913" y="-560" as="targetPoint" />
          </mxGeometry>
        </mxCell>
        <mxCell id="gRjfanxGKgktbRo47-63-47" value="" style="endArrow=none;html=1;rounded=0;fillColor=#e3c800;strokeColor=#B09500;" edge="1" parent="1">
          <mxGeometry width="50" height="50" relative="1" as="geometry">
            <mxPoint x="-810.5" y="-560.0000000000001" as="sourcePoint" />
            <mxPoint x="-720.5" y="-560.0000000000001" as="targetPoint" />
          </mxGeometry>
        </mxCell>
        <mxCell id="gRjfanxGKgktbRo47-63-48" value="&lt;b&gt;Object Type&lt;/b&gt;: Table&lt;div&gt;&lt;div style=&quot;text-align: left;&quot;&gt;&lt;br&gt;&lt;/div&gt;&lt;div style=&quot;text-align: left;&quot;&gt;&lt;b style=&quot;line-height: 150%;&quot;&gt;Load&lt;/b&gt;:&amp;nbsp;&lt;/div&gt;&lt;/div&gt;&lt;div style=&quot;text-align: left;&quot;&gt;&lt;ul&gt;&lt;li&gt;Batch Processing&lt;/li&gt;&lt;li&gt;Full Load&amp;nbsp;&lt;/li&gt;&lt;li&gt;Truncate &amp;amp; Insert&lt;/li&gt;&lt;/ul&gt;&lt;div&gt;No &lt;b&gt;Transformations&lt;/b&gt;&lt;/div&gt;&lt;div&gt;&lt;br&gt;&lt;/div&gt;&lt;div&gt;&lt;b&gt;Data Model&lt;/b&gt;: None (As-is)&lt;/div&gt;&lt;/div&gt;&lt;div&gt;&lt;br&gt;&lt;/div&gt;" style="text;html=1;align=center;verticalAlign=middle;whiteSpace=wrap;rounded=0;fontSize=10;" vertex="1" parent="1">
          <mxGeometry x="-1217.22" y="-550" width="134.44" height="150" as="geometry" />
        </mxCell>
        <mxCell id="gRjfanxGKgktbRo47-63-49" value="" style="html=1;verticalLabelPosition=bottom;align=center;labelBackgroundColor=#ffffff;verticalAlign=top;strokeWidth=2;strokeColor=#666666;shadow=0;dashed=0;shape=mxgraph.ios7.icons.data;fillColor=#f5f5f5;fontColor=#333333;" vertex="1" parent="1">
          <mxGeometry x="-991.63" y="-706.55" width="57.25" height="69.1" as="geometry" />
        </mxCell>
        <mxCell id="gRjfanxGKgktbRo47-63-50" value="" style="html=1;verticalLabelPosition=bottom;align=center;labelBackgroundColor=#ffffff;verticalAlign=top;strokeWidth=2;strokeColor=#B09500;shadow=0;dashed=0;shape=mxgraph.ios7.icons.data;fillColor=#e3c800;fontColor=#000000;" vertex="1" parent="1">
          <mxGeometry x="-794.13" y="-706.55" width="57.25" height="69.1" as="geometry" />
        </mxCell>
        <mxCell id="gRjfanxGKgktbRo47-63-57" value="&lt;b&gt;Object Type&lt;/b&gt;: Table&lt;div&gt;&lt;div style=&quot;text-align: left;&quot;&gt;&lt;br&gt;&lt;/div&gt;&lt;div style=&quot;text-align: left;&quot;&gt;&lt;b style=&quot;line-height: 150%;&quot;&gt;Load&lt;/b&gt;:&amp;nbsp;&lt;/div&gt;&lt;/div&gt;&lt;div style=&quot;text-align: left;&quot;&gt;&lt;ul&gt;&lt;li&gt;Batch Processing&lt;/li&gt;&lt;li&gt;Full Load&amp;nbsp;&lt;/li&gt;&lt;li&gt;Truncate &amp;amp; Insert&lt;/li&gt;&lt;/ul&gt;&lt;div&gt;&amp;nbsp;&lt;b&gt;Transformations:&lt;/b&gt;&lt;/div&gt;&lt;div&gt;&lt;ul&gt;&lt;li&gt;&lt;b&gt;Data Cleansing&lt;/b&gt;&lt;/li&gt;&lt;li&gt;&lt;b&gt;Data Standrization&lt;/b&gt;&lt;/li&gt;&lt;li&gt;&lt;b&gt;Data Normalzation&lt;/b&gt;&lt;/li&gt;&lt;li&gt;&lt;b&gt;Derived Columes&lt;/b&gt;&lt;/li&gt;&lt;li&gt;&lt;b&gt;Data Enrichment&lt;/b&gt;&lt;/li&gt;&lt;/ul&gt;&lt;/div&gt;&lt;div&gt;&lt;br&gt;&lt;/div&gt;&lt;div&gt;&lt;b&gt;Data Model&lt;/b&gt;: None (As-is)&lt;/div&gt;&lt;/div&gt;&lt;div&gt;&lt;br&gt;&lt;/div&gt;" style="text;html=1;align=center;verticalAlign=middle;whiteSpace=wrap;rounded=0;fontSize=10;" vertex="1" parent="1">
          <mxGeometry x="-1025.22" y="-550" width="134.44" height="230" as="geometry" />
        </mxCell>
        <mxCell id="gRjfanxGKgktbRo47-63-58" value="&lt;b&gt;Object Type&lt;/b&gt;: Views&lt;div&gt;&lt;div style=&quot;text-align: left;&quot;&gt;&lt;br&gt;&lt;/div&gt;&lt;div style=&quot;text-align: left;&quot;&gt;&lt;b style=&quot;line-height: 150%;&quot;&gt;No Load&lt;/b&gt;&lt;/div&gt;&lt;/div&gt;&lt;div style=&quot;text-align: left;&quot;&gt;&lt;b style=&quot;line-height: 150%;&quot;&gt;&lt;br&gt;&lt;/b&gt;&lt;/div&gt;&lt;div style=&quot;text-align: left;&quot;&gt;&lt;div&gt;&amp;nbsp;&lt;b&gt;Transformations:&lt;/b&gt;&lt;/div&gt;&lt;div&gt;&lt;ul&gt;&lt;li&gt;&lt;b&gt;Data Integrations&lt;/b&gt;&lt;/li&gt;&lt;li&gt;&lt;b&gt;Aggregations&lt;/b&gt;&lt;/li&gt;&lt;li&gt;&lt;b&gt;Business Logics&lt;/b&gt;&lt;/li&gt;&lt;/ul&gt;&lt;/div&gt;&lt;div&gt;&lt;br&gt;&lt;/div&gt;&lt;div&gt;&lt;b&gt;Data Model&lt;/b&gt;:&lt;/div&gt;&lt;div&gt;&lt;ul&gt;&lt;li&gt;Star Schema&lt;/li&gt;&lt;li&gt;Flat Table&lt;/li&gt;&lt;li&gt;Aggregated Table&lt;/li&gt;&lt;/ul&gt;&lt;/div&gt;&lt;/div&gt;&lt;div&gt;&lt;br&gt;&lt;/div&gt;" style="text;html=1;align=center;verticalAlign=middle;whiteSpace=wrap;rounded=0;fontSize=10;" vertex="1" parent="1">
          <mxGeometry x="-832.72" y="-550" width="134.44" height="230" as="geometry" />
        </mxCell>
        <mxCell id="gRjfanxGKgktbRo47-63-59" value="" style="html=1;shadow=0;dashed=0;align=center;verticalAlign=middle;shape=mxgraph.arrows2.arrow;dy=0.67;dx=20;notch=0;fillColor=#dae8fc;strokeColor=#6c8ebf;" vertex="1" parent="1">
          <mxGeometry x="-1300" y="-565" width="50" height="30" as="geometry" />
        </mxCell>
        <mxCell id="gRjfanxGKgktbRo47-63-61" value="" style="html=1;shadow=0;dashed=0;align=center;verticalAlign=middle;shape=mxgraph.arrows2.arrow;dy=0.67;dx=20;notch=0;fillColor=#dae8fc;strokeColor=#6c8ebf;" vertex="1" parent="1">
          <mxGeometry x="-882.72" y="-565" width="50" height="30" as="geometry" />
        </mxCell>
        <mxCell id="gRjfanxGKgktbRo47-63-62" value="" style="html=1;shadow=0;dashed=0;align=center;verticalAlign=middle;shape=mxgraph.arrows2.arrow;dy=0.67;dx=20;notch=0;fillColor=#dae8fc;strokeColor=#6c8ebf;" vertex="1" parent="1">
          <mxGeometry x="-670" y="-565" width="50" height="30" as="geometry" />
        </mxCell>
        <mxCell id="gRjfanxGKgktbRo47-63-64" value="" style="image;aspect=fixed;html=1;points=[];align=center;fontSize=12;image=img/lib/azure2/analytics/Power_BI_Embedded.svg;" vertex="1" parent="1">
          <mxGeometry x="-570.5" y="-750" width="51" height="68" as="geometry" />
        </mxCell>
        <mxCell id="gRjfanxGKgktbRo47-63-65" value="" style="sketch=0;html=1;aspect=fixed;strokeColor=none;shadow=0;fillColor=#3B8DF1;verticalAlign=top;labelPosition=center;verticalLabelPosition=bottom;shape=mxgraph.gcp2.search" vertex="1" parent="1">
          <mxGeometry x="-574.7" y="-583" width="63.41" height="64.05" as="geometry" />
        </mxCell>
        <mxCell id="gRjfanxGKgktbRo47-63-66" value="" style="editableCssRules=.*;html=1;shape=image;verticalLabelPosition=bottom;labelBackgroundColor=#ffffff;verticalAlign=top;aspect=fixed;imageAspect=0;image=data:image/svg+xml,PHN2ZyB4bWxucz0iaHR0cDovL3d3dy53My5vcmcvMjAwMC9zdmciIHhtbG5zOnY9Imh0dHBzOi8vdmVjdGEuaW8vbmFubyIgd2lkdGg9IjE2Ljk3OTk5OTU0MjIzNjMyOCIgaGVpZ2h0PSIyMCIgdmlld0JveD0iMCAwIDE2Ljk3OTk5OTU0MjIzNjMyOCAyMCI+JiN4YTsJPHN0eWxlIHR5cGU9InRleHQvY3NzIj4mI3hhOwkuc3Qwe2ZpbGw6IzY2OWRmNjt9JiN4YTsJLnN0MXtmaWxsOiM0Mjg1ZjQ7fSYjeGE7CS5zdDJ7ZmlsbDojYWVjYmZhO30mI3hhOwk8L3N0eWxlPiYjeGE7CTxnIGNsYXNzPSJzdDAiPiYjeGE7CQk8cGF0aCBkPSJNOC40OSAxMC4yOUwuMjQgNS4zNSA4LjQ5LjU4bDguMjQgNC42N3pNMS43NiA1LjM2bDYuNzIgNCA2LjcyLTQuMTEtNi43MS0zLjc4eiIvPiYjeGE7CQk8cGF0aCBkPSJNOC40OSAxOS40NEwuMjEgMTMuODkgOC40OSA5LjNsOC4xNSA0LjY0em0tNi44LTUuNWw2LjggNC41NiA2LjctNC41LTYuNy0zLjgyeiIvPiYjeGE7CTwvZz4mI3hhOwk8ZyBjbGFzcz0ic3QxIj4mI3hhOwkJPHBhdGggZD0iTS42MTMgNS41MDJsLjY3NS0uMzcxIDcuNDc3IDEzLjYtLjY3NS4zNzF6Ii8+JiN4YTsJCTxwYXRoIGQ9Ik04LjE5NCAxOC44MjZsNy4zMDEtMTMuNTU5LjY3OC4zNjUtNy4zMDEgMTMuNTU5ek0uNzE2IDEzLjY4N0w4LjA5Ni45MDRsLjY2Ny4zODUtNy4zOCAxMi43ODN6Ii8+JiN4YTsJCTxwYXRoIGQ9Ik04LjE5NCAxLjIxNGwuNjY5LS4zODEgNy40MDUgMTIuOTg3LS42NjkuMzgxeiIvPiYjeGE7CQk8cGF0aCBkPSJNOC4xMy45NmguNzdWMTguOWgtLjc3ek0uNTUgNS40M2guNzd2OC42NkguNTV6bTE0Ljk3LS4wOWguNzdWMTRoLS43N3oiLz4mI3hhOwk8L2c+JiN4YTsJPGcgY2xhc3M9InN0MiI+JiN4YTsJCTxjaXJjbGUgY3g9IjguNTIiIGN5PSIxLjA3IiByPSIxLjA3Ii8+JiN4YTsJCTxjaXJjbGUgY3g9IjE1LjkxIiBjeT0iNS4zNCIgcj0iMS4wNyIvPiYjeGE7CQk8Y2lyY2xlIGN4PSIxLjA3IiBjeT0iNS4zNCIgcj0iMS4wNyIvPiYjeGE7CQk8Y2lyY2xlIGN4PSI4LjUyIiBjeT0iOS45MyIgcj0iMS42OCIvPiYjeGE7CQk8Y2lyY2xlIGN4PSIxNS45MSIgY3k9IjEzLjk0IiByPSIxLjA3Ii8+JiN4YTsJCTxjaXJjbGUgY3g9IjEuMDciIGN5PSIxMy45NCIgcj0iMS4wNyIvPiYjeGE7CQk8Y2lyY2xlIGN4PSI4LjUyIiBjeT0iMTguOTMiIHI9IjEuMDciLz4mI3hhOwkJPHBhdGggZD0iTTguNDkgMTAuMjlMLjI0IDUuMzUgOC40OS41OGw4LjI0IDQuNjd6TTEuNzYgNS4zNmw2LjcyIDQgNi43Mi00LjExLTYuNzEtMy43OHoiLz4mI3hhOwkJPHBhdGggZD0iTTguNDkgMTkuNDRMLjIxIDEzLjg5IDguNDkgOS4zbDguMTUgNC42NHptLTYuOC01LjVsNi44IDQuNTYgNi43LTQuNS02LjctMy44MnoiLz4mI3hhOwkJPHBhdGggZD0iTS42MTMgNS41MDJsLjY3NS0uMzcxIDcuNDc3IDEzLjYtLjY3NS4zNzF6Ii8+JiN4YTsJCTxwYXRoIGQ9Ik04LjE5NCAxOC44MjZsNy4zMDEtMTMuNTU5LjY3OC4zNjUtNy4zMDEgMTMuNTU5ek0uNzE2IDEzLjY4N0w4LjA5Ni45MDRsLjY2Ny4zODUtNy4zOCAxMi43ODN6Ii8+JiN4YTsJCTxwYXRoIGQ9Ik04LjE5NCAxLjIxNGwuNjY5LS4zODEgNy40MDUgMTIuOTg3LS42NjkuMzgxeiIvPiYjeGE7CQk8cGF0aCBkPSJNOC4xMy45NmguNzdWMTguOWgtLjc3ek0uNTUgNS40M2guNzd2OC42NkguNTV6bTE0Ljk3LS4wOWguNzdWMTRoLS43N3oiLz4mI3hhOwk8L2c+JiN4YTsJPGcgY2xhc3M9InN0MCI+JiN4YTsJCTxjaXJjbGUgY3g9IjguNTIiIGN5PSIxLjA3IiByPSIxLjA3Ii8+JiN4YTsJCTxjaXJjbGUgY3g9IjE1LjkxIiBjeT0iNS4zNCIgcj0iMS4wNyIvPiYjeGE7CQk8Y2lyY2xlIGN4PSIxLjA3IiBjeT0iNS4zNCIgcj0iMS4wNyIvPiYjeGE7CQk8Y2lyY2xlIGN4PSI4LjUyIiBjeT0iOS45MyIgcj0iMS42OCIvPiYjeGE7CQk8Y2lyY2xlIGN4PSIxNS45MSIgY3k9IjEzLjk0IiByPSIxLjA3Ii8+JiN4YTsJCTxjaXJjbGUgY3g9IjEuMDciIGN5PSIxMy45NCIgcj0iMS4wNyIvPiYjeGE7CQk8Y2lyY2xlIGN4PSI4LjUyIiBjeT0iMTguOTMiIHI9IjEuMDciLz4mI3hhOwk8L2c+JiN4YTs8L3N2Zz4=;" vertex="1" parent="1">
          <mxGeometry x="-570.5" y="-420" width="51" height="60" as="geometry" />
        </mxCell>
        <mxCell id="gRjfanxGKgktbRo47-63-67" value="Power BI" style="text;html=1;align=center;verticalAlign=middle;whiteSpace=wrap;rounded=0;" vertex="1" parent="1">
          <mxGeometry x="-574.7" y="-667.45" width="60" height="30" as="geometry" />
        </mxCell>
        <mxCell id="gRjfanxGKgktbRo47-63-68" value="Ad-Hoc&lt;div&gt;SQL Querues&lt;/div&gt;" style="text;html=1;align=center;verticalAlign=middle;whiteSpace=wrap;rounded=0;" vertex="1" parent="1">
          <mxGeometry x="-589.75" y="-510.00000000000006" width="89.5" height="30" as="geometry" />
        </mxCell>
        <mxCell id="gRjfanxGKgktbRo47-63-69" value="Machine Learining" style="text;html=1;align=center;verticalAlign=middle;whiteSpace=wrap;rounded=0;" vertex="1" parent="1">
          <mxGeometry x="-600" y="-350" width="110" height="30" as="geometry" />
        </mxCell>
        <mxCell id="gRjfanxGKgktbRo47-63-70" value="" style="image;aspect=fixed;html=1;points=[];align=center;fontSize=12;image=img/lib/azure2/databases/SQL_Server.svg;" vertex="1" parent="1">
          <mxGeometry x="-1230" y="-860" width="38" height="38" as="geometry" />
        </mxCell>
        <mxCell id="gRjfanxGKgktbRo47-63-71" value="SQL Server" style="text;html=1;align=center;verticalAlign=middle;whiteSpace=wrap;rounded=0;" vertex="1" parent="1">
          <mxGeometry x="-1210" y="-852" width="102" height="30" as="geometry" />
        </mxCell>
        <mxCell id="gRjfanxGKgktbRo47-63-72" value="" style="rounded=0;whiteSpace=wrap;html=1;fillColor=none;strokeColor=#d6b656;fontSize=20;" vertex="1" parent="1">
          <mxGeometry x="-1230" y="-750" width="160" height="480" as="geometry" />
        </mxCell>
        <mxCell id="gRjfanxGKgktbRo47-63-74" value="" style="html=1;shadow=0;dashed=0;align=center;verticalAlign=middle;shape=mxgraph.arrows2.arrow;dy=0.67;dx=20;notch=0;fillColor=#dae8fc;strokeColor=#6c8ebf;" vertex="1" parent="1">
          <mxGeometry x="-1075.22" y="-565" width="50" height="30" as="geometry" />
        </mxCell>
      </root>
    </mxGraphModel>
  </diagram>
</mxfile>
